<svg id="Layer_1" data-name="Layer 1" xmlns="http://www.w3.org/2000/svg" viewBox="0 0 100 100">
<defs>
<style>.cls-1{fill:#f58b29;}</style>
</defs>
<title>ico_vist.rio</title>
<path class="cls-1" d="M86.81,21.54H71.91V19.9a4.9,4.9,0,1,0-9.8,0v1.64H37.89V19.9a4.9,4.9,0,1,0-9.8,0v1.64H13a3.83,3.83,0,0,0-3.92,3.92V80.92A4,4,0,0,0,13,85H86.81a4.14,4.14,0,0,0,4.08-4.08V25.46A4,4,0,0,0,86.81,21.54ZM82.89,41.38V76.84H17.11V29.55h11v1.64a4.9,4.9,0,1,0,9.8,0V29.55H62.11v1.64a4.9,4.9,0,1,0,9.8,0V29.55h11V41.38Z"/>
</svg>