<svg id="Layer_1" data-name="Layer 1" xmlns="http://www.w3.org/2000/svg" viewBox="0 0 100 100"><defs><style>.cls-1{fill:none;}.cls-2{fill:#ffcf3b;}</style></defs><title>ico_vist.rio</title><path class="cls-1" d="M67.78,55.4a14.83,14.83,0,0,0-6,1.31,5,5,0,0,1-6.88-3.54c-2.53-12.14-9-20.95-15.44-20.95C27.09,32.22,15,55,15,71.93a23.1,23.1,0,0,0,.61,5.82H85C83.82,69.11,76.79,55.4,67.78,55.4Z"/><path class="cls-2" d="M15,71.93c0-17,12.12-39.71,24.52-39.71,6.41,0,12.9,8.81,15.44,20.95a5,5,0,0,0,6.88,3.54,14.83,14.83,0,0,1,6-1.31c9,0,16,13.71,17.19,22.35H95C93.84,65.23,83.72,45.43,67.78,45.43a23.76,23.76,0,0,0-4.46.42c-4.4-14.32-13.58-23.6-23.84-23.6C19.48,22.26,5,51.93,5,71.93a35.6,35.6,0,0,0,.48,5.82h10.1A23.1,23.1,0,0,1,15,71.93Z"/></svg>