<svg id="Layer_1" data-name="Layer 1" xmlns="http://www.w3.org/2000/svg" viewBox="0 0 100 100"><title>ico_vist.rio</title><path d="M80.52,65.06A10.77,10.77,0,0,1,69.94,75.64H30.06A10.77,10.77,0,0,1,19.48,65.06V49.19A10.77,10.77,0,0,1,30.06,38.61h40.7A10.77,10.77,0,0,1,81.34,49.19ZM49.18,24h2a9.36,9.36,0,0,1,9,5.7H39.82c1.63-2.85,5.29-5.7,9.36-5.7m20.76,6.1h0A19.56,19.56,0,0,0,51.22,15h-2A19.56,19.56,0,0,0,30.47,30.06H30.06A19.81,19.81,0,0,0,10.52,49.59V65.46A19.81,19.81,0,0,0,30.06,85H69.94A19.81,19.81,0,0,0,89.48,65.46V49.59A19.29,19.29,0,0,0,69.94,30.06"/></svg>