<svg id="Layer_1" data-name="Layer 1" xmlns="http://www.w3.org/2000/svg" viewBox="0 0 100 100"><title>ico_vist.rio</title><path d="M75.59,22.46a4,4,0,0,0-6-3.48c-2.16,1.24-11.41,4.92-17.06.36-11.65-9.4-25.66-.64-26.25-0.26a4,4,0,0,0-1.82,3.69c0,0.12,0,.23,0,0.36V81a4,4,0,0,0,8,0V58.32c3.15-1.44,9.74-3.57,15,.71a18.76,18.76,0,0,0,12,4,30.75,30.75,0,0,0,14-3.62,4,4,0,0,0,2-4c0-.11,0-0.22,0-0.33V22.46h0ZM52.52,52.78c-7-5.63-14.8-4.74-20.08-3V24.86c3.16-1.46,9.73-3.57,15,.72C53.75,30.64,61.8,30,67.56,28.37v25C63.92,54.79,57.06,56.45,52.52,52.78Z"/></svg>