<svg id="Layer_1" data-name="Layer 1" xmlns="http://www.w3.org/2000/svg" viewBox="0 0 100 100"><defs><style>.cls-1{fill:#6cc077;}</style></defs><title>ico_vist.rio</title><path class="cls-1" d="M49.66,43.66A14.47,14.47,0,1,1,35.33,58,14.59,14.59,0,0,1,49.66,43.66Zm0,19.84A5.51,5.51,0,1,0,44.14,58,5.71,5.71,0,0,0,49.66,63.5Z"/><path class="cls-1" d="M16.87,50.28a1.25,1.25,0,0,0,1.38,0,41.34,41.34,0,0,1,62.82.83,0.92,0.92,0,0,0,1.38.28L88.23,47a0.92,0.92,0,0,0,.28-1.38c-9.64-11-23.42-18.18-38.85-18.18a50.36,50.36,0,0,0-38,17.08c-0.55.55-.28,0.83,0,1.38Z"/></svg>