<svg id="Layer_1" data-name="Layer 1" xmlns="http://www.w3.org/2000/svg" viewBox="0 0 100 100"><title>ico_vist.rio</title><path d="M60.47,37.35V70.67a8.21,8.21,0,0,1-8.2,8.2H18.33a8.21,8.21,0,0,1-8.2-8.2V37.35a8.21,8.21,0,0,1,8.2-8.2H52.27A8.21,8.21,0,0,1,60.47,37.35ZM14.67,70.67a3.66,3.66,0,0,0,3.66,3.66H52.27a3.66,3.66,0,0,0,3.66-3.66V37.35a3.66,3.66,0,0,0-3.66-3.66H18.33a3.66,3.66,0,0,0-3.66,3.66V70.67Z"/><path d="M21.39,65.93a2.52,2.52,0,0,1,2.49,2.49,2.5,2.5,0,0,1-2.49,2.44A2.47,2.47,0,0,1,19,68.41,2.5,2.5,0,0,1,21.39,65.93Z"/><path d="M50,65.93a2.52,2.52,0,0,1,2.49,2.49A2.5,2.5,0,0,1,50,70.85a2.47,2.47,0,0,1-2.44-2.44A2.5,2.5,0,0,1,50,65.93Z"/><path d="M48.78,63.27h-27A2.87,2.87,0,0,1,19,60.41V40.89A2.87,2.87,0,0,1,21.82,38h27a2.87,2.87,0,0,1,2.86,2.86V60.41A2.87,2.87,0,0,1,48.78,63.27Zm-25.3-4.52H47.12V42.55H23.47v16.2Z"/><path d="M10,40.46H8A1.19,1.19,0,0,0,6.72,41.7v10A1.19,1.19,0,0,0,8,52.92H10a1.19,1.19,0,0,0,1.24-1.24v-10A1.19,1.19,0,0,0,10,40.46"/><path d="M62.78,39.89H60.71a1.19,1.19,0,0,0-1.24,1.24v10a1.19,1.19,0,0,0,1.24,1.24h2.07A1.19,1.19,0,0,0,64,51.12v-10a1.19,1.19,0,0,0-1.24-1.24"/><path d="M23,75.92h-3.2a1.19,1.19,0,0,0-1.24,1.24v6.6A1.19,1.19,0,0,0,19.82,85H23a1.19,1.19,0,0,0,1.24-1.24v-6.6A1.19,1.19,0,0,0,23,75.92"/><path d="M51.61,75.92h-3.2a1.19,1.19,0,0,0-1.24,1.24v6.6A1.19,1.19,0,0,0,48.42,85h3.2a1.19,1.19,0,0,0,1.24-1.24v-6.6a1.19,1.19,0,0,0-1.24-1.24"/><path d="M93.28,24.28V41.93A9.29,9.29,0,0,1,84,51.2H83.85a9.29,9.29,0,0,1-9.28-9.28V24.28A9.29,9.29,0,0,1,83.85,15H84A9.29,9.29,0,0,1,93.28,24.28ZM79.71,41.93a4.14,4.14,0,0,0,4.14,4.14H84a4.14,4.14,0,0,0,4.14-4.14V24.28A4.14,4.14,0,0,0,84,20.14H83.85a4.14,4.14,0,0,0-4.14,4.14V41.93Z"/><path d="M85.52,66.86h-3.2a1.19,1.19,0,0,0-1.24,1.24V83.74A1.19,1.19,0,0,0,82.33,85h3.2a1.19,1.19,0,0,0,1.24-1.24V68.1a1.19,1.19,0,0,0-1.24-1.24"/><path d="M83.81,70.65a8,8,0,1,1,8-8A8,8,0,0,1,83.81,70.65Zm0-11.46a3.47,3.47,0,1,0,3.47,3.47A3.47,3.47,0,0,0,83.81,59.19Z"/><path d="M85.52,47.26h-3.2a1.19,1.19,0,0,0-1.24,1.24v7.73a1.19,1.19,0,0,0,1.24,1.24h3.2a1.19,1.19,0,0,0,1.24-1.24V48.49a1.19,1.19,0,0,0-1.24-1.24"/></svg>