<svg id="Layer_1" data-name="Layer 1" xmlns="http://www.w3.org/2000/svg" viewBox="0 0 100 100"><title>ico_vist.rio</title><path d="M12.87,24.18c0.77-1.39,1.86-1.85,4.49-1.85A13.41,13.41,0,0,1,25.1,24.5c5,2.79,9.91,5.73,15,8.67C50.81,27,61.49,20.78,72.33,14.58a4,4,0,0,1,3.25,0c1.09,0.62,2.18,1.24,3.41,2a2.75,2.75,0,0,1,1.08,4A7,7,0,0,1,79,21.71c-6,5.58-12.08,11.15-18.12,16.88-0.93,1.55-1.85,3.25-2.94,5,4,2.32,8,4.64,12.23,7,0.94,0.78,1.55,1.4,2.33,2.17a26.17,26.17,0,0,1,1.86,2.17c2.17-1.55,4.34-3.25,6.66-5a3.27,3.27,0,0,1,3.87-.31c0.31,0.16.78,0.47,1.24,0.78,1.55,0.78,1.86,2.17,1.08,3.72-0.77,1.24-1.54,2.63-2.32,4-1.09,1.86-2.17,3.72-3.4,5.73-1.09,1.86-2.18,3.72-3.25,5.73-0.78,1.24-1.55,2.63-2.33,4a2.54,2.54,0,0,1-3.87.93,8.92,8.92,0,0,1-1.24-.62,3.33,3.33,0,0,1-1.55-3.56q0.47-4.18.93-8.37a9.48,9.48,0,0,1-2.94-.31c-0.93-.31-1.85-0.61-2.94-1.08l-12.08-7c-0.93,1.55-1.85,3.25-2.94,5L43.69,82.72a7,7,0,0,1-.31,1.55,2.87,2.87,0,0,1-4,1.09c-1.08-.62-2.17-1.24-3.4-2a4.09,4.09,0,0,1-1.7-2.79V43.23c-5-2.79-9.91-5.73-15-8.67A13.24,13.24,0,0,1,13.49,29c-1.24-2.33-1.4-3.41-.62-4.8"/></svg>