<svg id="Layer_1" data-name="Layer 1" xmlns="http://www.w3.org/2000/svg" viewBox="0 0 100 100"><title>ico_vist.rio</title><path d="M86.2,63.85l-9-9.37a9.77,9.77,0,0,0-7-3.12,10.49,10.49,0,0,0-7,3.12l-0.39.39a35.2,35.2,0,0,0-3.9,3.51A0.38,0.38,0,0,0,58.5,58a1.36,1.36,0,0,1-.78-0.39,53.5,53.5,0,0,1-12.88-12.1A31.41,31.41,0,0,1,41.32,40l4.29-3.9a9.77,9.77,0,0,0,3.12-7,10.49,10.49,0,0,0-3.12-7l-8.59-9A9.77,9.77,0,0,0,30,10a10.49,10.49,0,0,0-7,3.12l-2.34,2.34L19.08,17c-1.17,1.17-3.12,2.73-3.9,3.51a15,15,0,0,0-4.29,9c-0.78,5.46.78,9.76,2,13.27,2.34,7.41,6.63,14.44,12.49,21.85A78.38,78.38,0,0,0,51.08,85.32C56.93,88,61.62,89.61,66.69,90h1.56c4.68,0,8.2-1.56,10.93-5.46a12.84,12.84,0,0,1,2.34-2.34l2.73-2.73,1.56-1.56a8.86,8.86,0,0,0,3.51-7A10.49,10.49,0,0,0,86.2,63.85Zm-6.63,9.37L78,74.78a36,36,0,0,0-5.46,5.46,5.68,5.68,0,0,1-4.68,2H67.08A35.88,35.88,0,0,1,55,78.29,71.61,71.61,0,0,1,32,59.56,74.39,74.39,0,0,1,21,40.44c-1.17-3.9-2-6.63-1.56-9.37A4.82,4.82,0,0,1,21,28l2.73-2.73c1.17-1.17,2-2.34,2.73-2.73l2.34-2.34A2.07,2.07,0,0,1,30,19.37v-1.8h0v1.81a2.07,2.07,0,0,1,1.17.78l8.59,9c0.78,0.78.78,1.17,0,2l-1.17,1.17C37,33.81,35.47,35,33.91,36.54a6.11,6.11,0,0,0-1.17,6.24,38.89,38.89,0,0,0,5.46,9.37C42.89,58,47.57,62.68,53,66.2a22.35,22.35,0,0,0,2.73,1.56,1.21,1.21,0,0,0,.78.39,0.38,0.38,0,0,0,.39.39,5.37,5.37,0,0,0,6.63-.78L69,62.29c0.39,0,.78-0.39,1.17-0.39s0.78,0,.78.39l9,9a1.21,1.21,0,0,1,.39.78A2.07,2.07,0,0,1,79.57,73.22Z"/></svg>