<svg id="Layer_1" data-name="Layer 1" xmlns="http://www.w3.org/2000/svg" viewBox="0 0 100 100"><title>ico_vist.rio</title><path d="M89.41,38V62a2.86,2.86,0,0,1-2.86,2.76H46.82a2.84,2.84,0,0,1-1.95-.81A2.69,2.69,0,0,1,44.12,62V38a2.64,2.64,0,0,1,.76-2,2.77,2.77,0,0,1,1.95-.76H86.54a3,3,0,0,1,2,.76A3,3,0,0,1,89.41,38ZM83.79,59.24V43L68.17,55.3a2.27,2.27,0,0,1-1.41.43,2.38,2.38,0,0,1-1.51-.43L49.63,43V59.24H83.79ZM54.39,40.7l12.38,9.51L79,40.7H54.39Z"/><path d="M32.74,51H18.08a0.75,0.75,0,0,0-.75.75v4.75a0.75,0.75,0,0,0,.75.75H32.74a0.75,0.75,0,0,0,.75-0.75V51.71A0.75,0.75,0,0,0,32.74,51"/><path d="M26.75,45.13V40.38A0.75,0.75,0,0,0,26,39.63H11.34a0.75,0.75,0,0,0-.75.75v4.75a0.75,0.75,0,0,0,.75.75H26a0.75,0.75,0,0,0,.75-0.75"/></svg>