<svg id="Layer_1" data-name="Layer 1" xmlns="http://www.w3.org/2000/svg" viewBox="0 0 100 100"><defs><style>.cls-1{fill:#35c3e7;}</style></defs><title>ico_vist.rio</title><path class="cls-1" d="M19.07,30.45a1.16,1.16,0,0,1,1.28,0,38.47,38.47,0,0,0,58.45-.77,0.86,0.86,0,0,1,1.28-.26l5.38,4.1a0.86,0.86,0,0,1,.26,1.28c-9,10.26-21.79,16.92-36.15,16.92A46.86,46.86,0,0,1,14.2,35.83c-0.51-.51-0.26-0.77,0-1.28Z"/><path class="cls-1" d="M68,69.16l-4.1,1a2.58,2.58,0,0,1-2.82-1.54l-2.31-8.72a2.58,2.58,0,0,1,1.54-2.82l4.1-1a2.58,2.58,0,0,1,2.82,1.54l2.31,8.72A2.58,2.58,0,0,1,68,69.16Z"/><path class="cls-1" d="M33.94,69.93L38,70.7a2.5,2.5,0,0,0,2.82-1.79l1.79-9a2.5,2.5,0,0,0-1.79-2.82l-4.1-.77a2.5,2.5,0,0,0-2.82,1.79l-1.79,9C32.14,68.39,32.66,69.67,33.94,69.93Z"/><path class="cls-1" d="M9.33,58.9l3.33,2.31A2.43,2.43,0,0,0,16,60.7l5.13-7.44a2.43,2.43,0,0,0-.51-3.33l-3.33-2.31a2.43,2.43,0,0,0-3.33.51L8.81,55.57C8,56.34,8.3,57.62,9.33,58.9Z"/><path class="cls-1" d="M90.85,57.37l-3.33,2.56a2.46,2.46,0,0,1-3.33-.51L78.8,52.24a2.46,2.46,0,0,1,.51-3.33l3.33-2.56a2.46,2.46,0,0,1,3.33.51L91.37,54C91.88,55.57,91.62,56.85,90.85,57.37Z"/></svg>