<svg id="Layer_1" data-name="Layer 1" xmlns="http://www.w3.org/2000/svg" viewBox="0 0 100 100"><title>ico_vist.rio</title><path d="M41.89,64.86a6.29,6.29,0,0,1,4.86,2.37c1,1.18,3,3.91,4.88,6.43l4.29-6.19A6.13,6.13,0,0,1,61,64.86h5.57a7,7,0,0,0,7-7V30.63a7,7,0,0,0-7-7H33.45a7,7,0,0,0-7,7V57.89a7,7,0,0,0,7,7h8.44ZM51.74,85a5.1,5.1,0,0,1-4.11-2.17c-1.24-1.69-5-6.87-6.94-9.3H33.45A15.65,15.65,0,0,1,17.82,57.89V30.63A15.65,15.65,0,0,1,33.45,15H66.55A15.65,15.65,0,0,1,82.18,30.63V57.89A15.65,15.65,0,0,1,66.55,73.52H62.26l-6.41,9.25A5,5,0,0,1,51.74,85"/><path d="M49.94,28.43A5.69,5.69,0,0,1,55.55,34a5.63,5.63,0,0,1-5.61,5.49A5.56,5.56,0,0,1,44.45,34a5.63,5.63,0,0,1,5.49-5.61"/><path d="M46.43,58.12l7,0.05a1.08,1.08,0,0,0,1.09-1.07L54.64,45a1.08,1.08,0,0,0-1.07-1.09l-7-.05a1.08,1.08,0,0,0-1.09,1.07L45.36,57a1.08,1.08,0,0,0,1.07,1.09"/></svg>