<svg id="Layer_1" data-name="Layer 1" xmlns="http://www.w3.org/2000/svg" viewBox="0 0 100 100"><title>ico_vist.rio</title><path d="M50.44,42.08V77a8,8,0,0,1-8,8H24.64a8,8,0,0,1-8-8V42.08a8,8,0,0,1,8-8H42.4A8,8,0,0,1,50.44,42.08ZM21.06,77a3.59,3.59,0,0,0,3.59,3.58H42.4A3.59,3.59,0,0,0,46,77V42.08A3.59,3.59,0,0,0,42.4,38.5H24.64a3.59,3.59,0,0,0-3.59,3.59V77Z"/><path d="M29.09,50.25a2.47,2.47,0,0,1,2.44,2.44,2.45,2.45,0,0,1-2.44,2.39,2.42,2.42,0,0,1-2.39-2.39A2.45,2.45,0,0,1,29.09,50.25Z"/><path d="M39.39,50.25a2.47,2.47,0,0,1,2.44,2.44,2.45,2.45,0,0,1-2.44,2.39A2.42,2.42,0,0,1,37,52.68,2.45,2.45,0,0,1,39.39,50.25Z"/><path d="M28.95,62.85a0.25,0.25,0,0,1,.24,0,6.72,6.72,0,0,0,5,2.23,6.59,6.59,0,0,0,5.07-2.35,0.18,0.18,0,0,1,.24,0l0.92,0.72a0.18,0.18,0,0,1,0,.24,8.26,8.26,0,0,1-6.22,2.91,8.14,8.14,0,0,1-6.1-2.75,0.18,0.18,0,0,1,0-.24Z"/><path d="M34.21,67.86a9.44,9.44,0,0,1-7.08-3.19A1.44,1.44,0,0,1,26.94,63l0.12-.24,1.31-1.07,0.28-.14,0.43,0a1.57,1.57,0,0,1,.7.16L30,61.79,30.15,62a5.39,5.39,0,0,0,4,1.81,5.27,5.27,0,0,0,4-1.84,1.45,1.45,0,0,1,1.17-.58h0.31l0.61,0.3,0.81,0.64,0.37,0.18,0.23,0.59a1.54,1.54,0,0,1-.09,1.17l-0.18.26A9.55,9.55,0,0,1,34.21,67.86Z"/><path d="M75.36,15H60.21a8,8,0,0,0-8,8v4.88a8,8,0,0,0,8,8h0.93l3.77,3.69a0.95,0.95,0,0,0,1.33,0l3.63-3.68h5.5a8,8,0,0,0,8-8V23A8,8,0,0,0,75.36,15Zm3.59,12.91a3.59,3.59,0,0,1-3.59,3.58h-6.2l-2.93,3a0.95,0.95,0,0,1-1.33,0l-3-3H60.21a3.59,3.59,0,0,1-3.59-3.58V23a3.59,3.59,0,0,1,3.59-3.59H75.36A3.59,3.59,0,0,1,78.94,23v4.88Z"/></svg>