<svg id="Layer_1" data-name="Layer 1" xmlns="http://www.w3.org/2000/svg" viewBox="0 0 100 100"><title>ico_vist.rio</title><path d="M38.4,14.75a11.15,11.15,0,0,1,2.38,2.12l0.93,0.95L82.22,58.29c2.5,2.5,2.84,3.37,2.83,3.66L62.24,84.78a2.09,2.09,0,0,1-.59.46,10.59,10.59,0,0,1-2.4-2.11l-0.93-1L17.81,41.72C15.31,39.21,15,38.35,15,38l22.8-22.83a1.69,1.69,0,0,1,.61-0.47M61.66,90a5.56,5.56,0,0,0,3.94-1.86L88.25,65.49A4.92,4.92,0,0,0,89.79,62c0-2.6-2.09-4.89-4.22-7L44.2,13.56C42.42,11.73,40.75,10,38.37,10a5.56,5.56,0,0,0-3.94,1.86L11.78,34.51c-3.95,4,.53,8.42,2.67,10.57L55.83,86.44C57.6,88.27,59.27,90,61.66,90"/><path d="M39.68,25.19a2.38,2.38,0,0,0,2.38-2.38A2.36,2.36,0,0,0,38,21.13a2.37,2.37,0,0,0,0,3.36,2.44,2.44,0,0,0,1.68.7"/><path d="M34.07,30.8a2.55,2.55,0,0,0,1.68-.67,2.39,2.39,0,1,0-4.06-1.71,2.38,2.38,0,0,0,2.38,2.38"/><path d="M28.44,36.44a2.37,2.37,0,0,0,1.68-.69,2.43,2.43,0,0,0,.7-1.68,2.38,2.38,0,0,0-4.06-1.71,2.51,2.51,0,0,0-.7,1.71,2.37,2.37,0,0,0,.7,1.65,2.4,2.4,0,0,0,1.68.73"/><path d="M22.82,42A2.38,2.38,0,0,0,24.51,38a2.45,2.45,0,0,0-3.36,0,2.42,2.42,0,0,0-.7,1.68A2.39,2.39,0,0,0,22.82,42"/><path d="M45.74,57a2.38,2.38,0,0,0,2.38-2.38V48.52H54a2.38,2.38,0,0,0,0-4.75H45.74a2.38,2.38,0,0,0-2.38,2.38v8.43A2.38,2.38,0,0,0,45.74,57"/><path d="M57.4,60.19a2.38,2.38,0,0,0,1.68-4.06L47.42,44.46a2.38,2.38,0,1,0-3.36,3.36L55.72,59.49a2.37,2.37,0,0,0,1.68.7"/></svg>