<svg id="Layer_1" data-name="Layer 1" xmlns="http://www.w3.org/2000/svg" viewBox="0 0 100 100"><defs><style>.cls-1{fill:#fff;}</style></defs><title>ico_vist.rio</title><rect x="3.95" y="3.68" width="92.11" height="92.64" rx="21.87" ry="21.87"/><g id="s47Plr"><path class="cls-1" d="M50,82.46C39.78,74.11,30.3,65.3,25.33,52.81a25,25,0,0,1,6.33-28.08,27.17,27.17,0,0,1,29.9-4.64A25.39,25.39,0,0,1,76.5,44.74a29.81,29.81,0,0,1-2.62,10C68.68,66.23,59.79,74.61,50,82.46Z"/></g><g id="K6UHEU.tif"><path d="M50.27,51.54a15.49,15.49,0,0,1-7.94-2.61C41.64,48.45,41,47.84,41.6,47s1.37-.4,2.06,0c4.28,2.7,8.59,3,12.91.1,0.64-.42,1.27-0.66,1.81.07s0.08,1.38-.55,1.85A13.94,13.94,0,0,1,50.27,51.54Z"/><path d="M39,43.8a2.25,2.25,0,0,1-2.26-2.26,2.29,2.29,0,0,1,2.25-2.29,2.37,2.37,0,0,1,2.3,2.27A2.34,2.34,0,0,1,39,43.8Z"/><path d="M61,39.25a2.33,2.33,0,0,1,2.33,2.21,2.29,2.29,0,0,1-2.19,2.33,2.25,2.25,0,0,1-2.31-2.2A2.28,2.28,0,0,1,61,39.25Z"/></g></svg>