<svg id="Layer_1" data-name="Layer 1" xmlns="http://www.w3.org/2000/svg" viewBox="0 0 100 100"><title>ico_vist.rio</title><path d="M49.75,56.73a6.36,6.36,0,1,1,6.35-6.36,6.16,6.16,0,0,1-6.35,6.36M89.79,46c-2.44-22-22-38.17-43.94-35.72-10.74,1-20,6.36-26.85,14.68A39.85,39.85,0,0,0,49.75,90h4.4a44.72,44.72,0,0,0,15.62-4.89c2.93-1.47,3.42-4.89,2-7.83s-4.88-3.42-7.81-2a30,30,0,0,1-11.23,3.43A29.28,29.28,0,0,1,21,53.3a27.24,27.24,0,0,1,6.35-21A30.16,30.16,0,0,1,46.83,21.5,29.28,29.28,0,0,1,78.56,46.94c0.49,3.91-.49,6.85-2.44,8.32a4.74,4.74,0,0,1-4.39.49c-2.44-1-3.91-3.91-4.39-7.83A17.63,17.63,0,1,0,49.75,67.49,18.23,18.23,0,0,0,62,62.6,17.49,17.49,0,0,0,66.84,66c5.37,2.45,10.74,1.47,15.62-1.47,5.37-3.92,8.3-10.76,7.32-18.59"/></svg>