<svg id="Layer_1" data-name="Layer 1" xmlns="http://www.w3.org/2000/svg" viewBox="0 0 100 100"><title>ico_vist.rio</title><path d="M81.73,62.46L73.9,54.38a8.74,8.74,0,0,0-6.24-2.8,9,9,0,0,0-6.17,2.61l-0.3.29c-1.13,1-2.26,2.08-3.34,3.18l-0.37-.19a5.05,5.05,0,0,1-.66-0.36L56.71,57A48.7,48.7,0,0,1,45.45,46.46a24.26,24.26,0,0,1-3-4.64l3.64-3.54a8.82,8.82,0,0,0,2.89-6.22,8.81,8.81,0,0,0-2.7-6.31l-7.72-8A8.72,8.72,0,0,0,32.28,15a9,9,0,0,0-6.17,2.61l-2,2-1.25,1.25c-1.1,1.1-2.6,2.6-3.33,3.23a12.05,12.05,0,0,0-3.83,7.86,26.36,26.36,0,0,0,1.8,11.55,65.1,65.1,0,0,0,11,19.06A70.13,70.13,0,0,0,51.25,80.85,35.19,35.19,0,0,0,64.83,85L66,85a11.87,11.87,0,0,0,9.41-4.07c0.44-.48,1.33-1.35,2.19-2.19s1.81-1.77,2.25-2.25L81.4,75a8.92,8.92,0,0,0,3-6.34A8.59,8.59,0,0,0,81.73,62.46ZM69.85,75.85a5,5,0,0,1-4,1.57l-0.59,0a30.78,30.78,0,0,1-10.65-3.26A64,64,0,0,1,34.28,57.78a58.09,58.09,0,0,1-9.74-16.7c-1.23-3.66-1.64-6.06-1.42-8.32a4.29,4.29,0,0,1,1.34-2.89c0.58-.5,1.49-1.39,2.46-2.34s1.79-1.75,2.36-2.25l2-2a1.58,1.58,0,0,1,.87-0.53v0a1.57,1.57,0,0,1,.86.56l7.72,8c0.83,0.86.83,1,0,1.86l-1,.92c-1.26,1.23-2.57,2.49-4,3.8A4.74,4.74,0,0,0,34.6,43.3a36.33,36.33,0,0,0,4.81,8.09A53.75,53.75,0,0,0,52.48,63.65,20.43,20.43,0,0,0,54.75,65l0.52,0.25a3.07,3.07,0,0,1,.46.24l0.13,0.08a5,5,0,0,0,5.95-.79L66.74,60a1.64,1.64,0,0,1,.91-0.49,1.37,1.37,0,0,1,.77.46c2.42,2.5,5.17,5.33,7.86,8L76.37,68a1,1,0,0,1,.42.61,1.5,1.5,0,0,1-.56.91l-1.47,1.43A64.21,64.21,0,0,0,69.85,75.85Z"/></svg>