<svg id="Layer_1" data-name="Layer 1" xmlns="http://www.w3.org/2000/svg" viewBox="0 0 100 100"><defs><style>.cls-1{fill:none;}</style></defs><title>ico_vist.rio</title><path class="cls-1" d="M50,26.37a8.82,8.82,0,0,0-9,9,9.07,9.07,0,0,0,9,9,9.34,9.34,0,0,0,9-9A8.81,8.81,0,0,0,50,26.37Z"/><path d="M50,10C36.35,10,25,21.3,25,35.72c0,13.64,10.13,29.62,23.78,53.4q1.17,1.75,2.34,0c13.64-23.78,23.78-39.37,23.78-53.4A24.81,24.81,0,0,0,50,10Zm0,34.3a9.07,9.07,0,0,1-9-9,9,9,0,0,1,17.93,0A9.34,9.34,0,0,1,50,44.3Z"/></svg>