<svg id="Layer_1" data-name="Layer 1" xmlns="http://www.w3.org/2000/svg" viewBox="0 0 100 100"><title>ico_vist.rio</title><path d="M64.89,27.31L68,29.57a2.32,2.32,0,0,0,3.4-.57l5.11-7.38a2.32,2.32,0,0,0-.57-3.4L72.83,16a2.32,2.32,0,0,0-3.4.57L64.32,23.9A2.32,2.32,0,0,0,64.89,27.31Z"/><path d="M49.85,23.9h4a2.38,2.38,0,0,0,2.55-2.55V12.55A2.38,2.38,0,0,0,53.83,10h-4a2.38,2.38,0,0,0-2.55,2.55v8.79A2.53,2.53,0,0,0,49.85,23.9Z"/><path d="M38.22,27.87L35.1,30.14a2.32,2.32,0,0,1-3.4-.57L26.59,22.2a2.32,2.32,0,0,1,.57-3.4l3.12-2.27a2.32,2.32,0,0,1,3.4.57l5.11,7.38A2.36,2.36,0,0,1,38.22,27.87Z"/><path d="M72,90H28.29A15.44,15.44,0,0,1,13,74.68v-21A15.44,15.44,0,0,1,28.29,38.37H71.7A15.44,15.44,0,0,1,87,53.69v21A15,15,0,0,1,72,90ZM28.29,46.88a6.49,6.49,0,0,0-6.52,6.81v21a6.42,6.42,0,0,0,6.52,6.52H71.7a6.42,6.42,0,0,0,6.52-6.52v-21a6.66,6.66,0,0,0-6.52-6.81H28.29Z"/><path d="M50.14,51.7a12.62,12.62,0,0,1,0,25.25A12.84,12.84,0,0,1,37.66,64.18,12.59,12.59,0,0,1,50.14,51.7Zm0,17.3c3.69,0,6.24-4.26,3.69-8.23a1.07,1.07,0,0,0-.57-0.57c-4-2.84-7.94,0-7.94,3.69A4.85,4.85,0,0,0,50.14,69Z"/></svg>