<svg id="Layer_1" data-name="Layer 1" xmlns="http://www.w3.org/2000/svg" viewBox="0 0 100 100"><title>ico_vist.rio</title><path d="M31.12,72L35,65a1.67,1.67,0,0,1,2.73-.39c0.39,0,6.24,4.68,12.1,4.68,3.51,0,5.85-2,5.85-5.07,0-3.51-2.73-6.24-8.59-8.59-7.41-2.73-16.39-8.59-16.39-18.73,0-8.59,6.24-16.39,19.12-16.39,8.59,0,15.61,4.68,18,6.24,1.17,0.78.78,2,.39,2.73L63.9,35.76c-0.78,1.17-2,1.56-2.73,1.17s-7-5.07-12.1-5.07c-3.12,0-5.46,2-5.46,4.29,0,3.12,2.34,5.46,9,8.2,6.63,2.34,16.78,7.8,16.78,18.73,0,8.59-7.41,17.17-19.9,17.17-10.93,0-16.78-4.68-18.73-6.24C30.73,73.22,30.34,72.83,31.12,72Z"/><path d="M56.49,24.83V11.17A1.25,1.25,0,0,0,55.32,10h-8.2A1.25,1.25,0,0,0,46,11.17V24.44l10.54,0.39h0Z"/><path d="M56.49,75.17V88.83A1.25,1.25,0,0,1,55.32,90h-8.2A1.25,1.25,0,0,1,46,88.83V75.56l10.54-.39h0Z"/></svg>