<svg id="Layer_1" data-name="Layer 1" xmlns="http://www.w3.org/2000/svg" viewBox="0 0 100 100"><defs><style>.cls-1{fill:#fff;}</style></defs><title>ico_vist.rio</title><rect x="3.95" y="3.68" width="92.11" height="92.64" rx="21.87" ry="21.87"/><g id="_Group_" data-name="&lt;Group&gt;"><path class="cls-1" d="M45,37a0.86,0.86,0,1,0,1.73,0V27.35a1.08,1.08,0,1,1,2.15,0v14a6,6,0,0,1-4,5.79l0.57,18.71h9.81l0.47-7A4.46,4.46,0,0,1,52,54.39V30.87c0-6.17,10.11-6.17,10.11,0V70.29l4,2.7c2.66,1.77,8.49,1.69,8.49-3.63V34.58A12.66,12.66,0,0,0,62,22H35.2A12.66,12.66,0,0,0,22.58,34.58V53.21A12.66,12.66,0,0,0,35.2,65.83h4.64l-1.31,0,0.57-18.68a6,6,0,0,1-4-5.79v-14a1.08,1.08,0,1,1,2.15,0V37A0.86,0.86,0,1,0,39,37V27.35a1.08,1.08,0,1,1,2.15,0V37a0.86,0.86,0,1,0,1.73,0V27.35a1.08,1.08,0,1,1,2.15,0V37Zm35.88-1V72.17c0,8.11-8.9,10.92-14.8,7L55.91,72.38H36.08a17,17,0,0,1-17-17V36.06a17,17,0,0,1,17-17H63.92A17,17,0,0,1,80.9,36.06Z"/></g></svg>