<svg id="Layer_1" data-name="Layer 1" xmlns="http://www.w3.org/2000/svg" viewBox="0 0 100 100"><defs><style>.cls-1{fill:#fff;}</style></defs><title>ico_vist.rio</title><rect x="3.95" y="3.68" width="92.11" height="92.64" rx="21.87" ry="21.87"/><circle class="cls-1" cx="50" cy="50" r="34.5"/><circle cx="50" cy="50" r="30.55"/><path class="cls-1" d="M58.61,46.06a2.82,2.82,0,0,1-2.15-1,8.25,8.25,0,0,0-12.42,0,2.82,2.82,0,1,1-4.29-3.65,13.89,13.89,0,0,1,21,0A2.82,2.82,0,0,1,58.61,46.06Z"/><path class="cls-1" d="M65.71,37.4a2.82,2.82,0,0,1-2-.8,19.37,19.37,0,0,0-27,0,2.82,2.82,0,1,1-3.93-4,25,25,0,0,1,34.86,0A2.82,2.82,0,0,1,65.71,37.4Z"/><path class="cls-1" d="M47.83,50.25h5a0.8,0.8,0,0,0,.8-0.8l-0.28-1.95a0.8,0.8,0,0,0-.8-0.8H48.1a0.8,0.8,0,0,0-.79.8L47,49.45A0.8,0.8,0,0,0,47.83,50.25Z"/><path class="cls-1" d="M64.31,62a2.4,2.4,0,0,0-1.91-2.35l-0.7-6a2,2,0,0,0-2-2H40.53a2,2,0,0,0-2,2l-1,6.16A2.4,2.4,0,0,0,36.14,62l-0.28,6.48a2.4,2.4,0,0,0,2.4,2.4h1.27v2.49a1.6,1.6,0,0,0,1.6,1.6h1.53a1.6,1.6,0,0,0,1.6-1.6V70.87H56.16v2.49a1.6,1.6,0,0,0,1.6,1.6h1.52a1.6,1.6,0,0,0,1.6-1.6V70.87H62.2a2.4,2.4,0,0,0,2.4-2.4ZM41.88,68a2.36,2.36,0,1,1,2.36-2.36A2.36,2.36,0,0,1,41.88,68Zm-2.32-8.38,0.72-5.32a0.56,0.56,0,0,1,.56-0.56H59.19a0.56,0.56,0,0,1,.56.56l0.64,5.32H39.55ZM58.94,68a2.36,2.36,0,1,1,2.36-2.36A2.36,2.36,0,0,1,58.94,68Z"/></svg>