<svg id="Layer_1" data-name="Layer 1" xmlns="http://www.w3.org/2000/svg" viewBox="0 0 100 100"><title>ico_vist.rio</title><path d="M50,36.68a4,4,0,1,1,4-4,4,4,0,0,1-4,4m0-25.61A24.19,24.19,0,0,0,25.81,35.26V64.74a24.19,24.19,0,0,0,48.38,0V35.26A24.19,24.19,0,0,0,50,11.07m0,6.61A17.6,17.6,0,0,1,67.58,35.26V64.74a17.58,17.58,0,0,1-35.15,0V35.26A17.6,17.6,0,0,1,50,17.68"/><path d="M50,90A25.29,25.29,0,0,1,24.74,64.74V35.26a25.26,25.26,0,0,1,50.52,0V64.74A25.29,25.29,0,0,1,50,90Zm0-77.86A23.15,23.15,0,0,0,26.88,35.26V64.74a23.12,23.12,0,0,0,46.24,0V35.26A23.15,23.15,0,0,0,50,12.14Zm0,71.25A18.67,18.67,0,0,1,31.35,64.74V35.26a18.65,18.65,0,0,1,37.29,0V64.74A18.67,18.67,0,0,1,50,83.39Zm0-64.63A16.52,16.52,0,0,0,33.49,35.26V64.74a16.51,16.51,0,0,0,33,0V35.26A16.52,16.52,0,0,0,50,18.75Zm0,19a5,5,0,1,1,5-5A5,5,0,0,1,50,37.75Zm0-7.94a2.9,2.9,0,1,0,2.9,2.9A2.9,2.9,0,0,0,50,29.82Z"/></svg>