<svg id="Layer_1" data-name="Layer 1" xmlns="http://www.w3.org/2000/svg" viewBox="0 0 100 100"><title>ico_vist.rio</title><path d="M75,24.41V65.23a9.42,9.42,0,0,1-9.41,9.41H34.42A9.42,9.42,0,0,1,25,65.23V24.41A9.42,9.42,0,0,1,34.42,15H65.58A9.42,9.42,0,0,1,75,24.41ZM30.22,65.23a4.2,4.2,0,0,0,4.2,4.2H65.58a4.2,4.2,0,0,0,4.2-4.2V24.41a4.2,4.2,0,0,0-4.2-4.2H34.42a4.2,4.2,0,0,0-4.2,4.2V65.23Z"/><path d="M36.81,59.25a2.89,2.89,0,0,1,2.85,2.85,2.86,2.86,0,0,1-2.85,2.8A2.83,2.83,0,0,1,34,62.1,2.86,2.86,0,0,1,36.81,59.25Z"/><path d="M63.13,59.25A2.89,2.89,0,0,1,66,62.1a2.86,2.86,0,0,1-2.85,2.8,2.83,2.83,0,0,1-2.8-2.8A2.86,2.86,0,0,1,63.13,59.25Z"/><path d="M62.87,51.55H37.13a3.29,3.29,0,0,1-3.28-3.29V35a3.29,3.29,0,0,1,3.28-3.28H62.87A3.29,3.29,0,0,1,66.16,35V48.27A3.29,3.29,0,0,1,62.87,51.55ZM39,46.37H61V36.86H39v9.51Z"/><path d="M70.12,83.58V81.21a1.36,1.36,0,0,0-1.42-1.42H31.3a1.36,1.36,0,0,0-1.42,1.42v2.37A1.36,1.36,0,0,0,31.3,85H68.7a1.36,1.36,0,0,0,1.42-1.42"/></svg>