<svg id="Layer_1" data-name="Layer 1" xmlns="http://www.w3.org/2000/svg" viewBox="0 0 100 100"><title>ico_vist.rio</title><path d="M24.41,77A18.29,18.29,0,1,1,42.7,58.71,18.28,18.28,0,0,1,24.41,77Zm0-31.6A13.32,13.32,0,1,0,37.72,58.71,13.28,13.28,0,0,0,24.41,45.4Z"/><path d="M24.41,61.4a2.69,2.69,0,0,1-2.3-4.08L34.56,36.7a2.69,2.69,0,0,1,2.3-1.3H67.53a2.69,2.69,0,0,1,0,5.37H38.37L26.71,60.1A2.69,2.69,0,0,1,24.41,61.4Z"/><path d="M75.59,77A18.29,18.29,0,1,1,93.88,58.71,18.28,18.28,0,0,1,75.59,77Zm0-31.6A13.32,13.32,0,1,0,88.91,58.71,13.28,13.28,0,0,0,75.59,45.4Z"/><path d="M73.6,59.08A2.69,2.69,0,0,1,71,57.16L62,26.45a2.69,2.69,0,1,1,5.15-1.52l9.08,30.71A2.69,2.69,0,0,1,73.6,59.08Z"/><path d="M64.53,28.37H55.45a2.69,2.69,0,1,1,0-5.37h9.08A2.69,2.69,0,1,1,64.53,28.37Z"/><path d="M37.73,40.77A2.69,2.69,0,0,1,35,38.09V28.71a2.69,2.69,0,0,1,5.37,0v9.38A2.69,2.69,0,0,1,37.73,40.77Z"/><path d="M37.73,31.39h-6a2.69,2.69,0,0,1,0-5.37h6A2.69,2.69,0,0,1,37.73,31.39Z"/></svg>