<svg id="Layer_1" data-name="Layer 1" xmlns="http://www.w3.org/2000/svg" viewBox="0 0 100 100"><title>ico_vist.rio</title><path d="M81.32,39H71.56l-14-11.48H52.89l-3.94,0c-1.19,0-3.48,0-3.86,0L42,27.5H36.22L22,39H18.67A11.57,11.57,0,0,0,7.11,50.55v4.5A11.58,11.58,0,0,0,18.67,66.61h1a8.6,8.6,0,0,0,16.32,0h27.3a8.6,8.6,0,0,0,16.32,0h1.74A11.58,11.58,0,0,0,92.89,55.05v-4.5A11.58,11.58,0,0,0,81.32,39m6.16,16.07a6.17,6.17,0,0,1-6.16,6.16H79.6a8.6,8.6,0,0,0-16.34,0H36a8.6,8.6,0,0,0-16.34,0h-1a6.17,6.17,0,0,1-6.16-6.16v-4.5a6.17,6.17,0,0,1,6.16-6.16H24L38.14,32.9H55.62l14,11.48H81.32a6.17,6.17,0,0,1,6.16,6.16v4.5Zm-16.06,12a3.2,3.2,0,1,1,3.2-3.2,3.21,3.21,0,0,1-3.2,3.2m-43.61,0A3.2,3.2,0,1,1,31,63.9a3.21,3.21,0,0,1-3.2,3.2"/></svg>