<svg id="Layer_1" data-name="Layer 1" xmlns="http://www.w3.org/2000/svg" viewBox="0 0 100 100"><title>ico_vist.rio</title><path d="M93.94,59.58c0.37-2.72-1.64-5.48-6.36-5.59l-12.37.49a2.47,2.47,0,0,1-1.45-.4L44.58,35l-8,.59L58.21,54.19,46,54.38a2.47,2.47,0,0,1-1.78-.72L33.6,43.08l-6.05.78L40.17,62.8a2.47,2.47,0,0,0,2.06,1.1l46.12-.06c3.41,0,5.22-1.54,5.59-4.26"/><path d="M26.13,59.37H12.82a0.68,0.68,0,0,0-.68.68v4.31a0.68,0.68,0,0,0,.68.68H26.13a0.68,0.68,0,0,0,.68-0.68V60a0.68,0.68,0,0,0-.68-0.68"/><path d="M20.69,54.07V49.76A0.68,0.68,0,0,0,20,49.08H6.7a0.68,0.68,0,0,0-.68.68v4.31a0.68,0.68,0,0,0,.68.68H20a0.68,0.68,0,0,0,.68-0.68"/></svg>