<svg id="Layer_1" data-name="Layer 1" xmlns="http://www.w3.org/2000/svg" viewBox="0 0 100 100"><title>ico_vist.rio</title><path d="M67.27,61.87c0-9.87-8.94-14.49-14.8-16.65-5.86-2.47-8-4.32-8-7.09,0-1.85,1.85-3.7,4.63-3.7,4.32,0,9.87,4,10.48,4.32,0.62,0.62,1.85,0,2.47-.93l3.7-5.55c0.31-.62.62-1.85-0.31-2.47a30,30,0,0,0-10.18-4.86V16.23A1.33,1.33,0,0,0,54,15H46.92a1.33,1.33,0,0,0-1.23,1.23v8.34c-8.7,1.46-13,7.7-13,14.17,0,8.94,7.71,13.88,14.19,16.34,5.24,1.85,7.71,4.32,7.71,7.4,0,2.47-1.85,4.32-4.93,4.32-4.93,0-10.18-4-10.48-4a1.63,1.63,0,0,0-2.47.31l-3.39,6.17c-0.62.93-.31,1.23,0,2.16a23.82,23.82,0,0,0,12.33,5.25v7.08A1.33,1.33,0,0,0,46.92,85H54a1.33,1.33,0,0,0,1.23-1.23V76.33C62.85,74.37,67.27,68.23,67.27,61.87Z"/></svg>