<svg id="Layer_1" data-name="Layer 1" xmlns="http://www.w3.org/2000/svg" viewBox="0 0 100 100"><title>ico_vist.rio</title><path d="M33.35,52.71H44.46V80.89h9.66V52.71H65a5,5,0,0,0,5-3.93,4.83,4.83,0,0,0-4.75-5.73H54.12v-6H54a11.56,11.56,0,0,0,6.84-10.87A11.7,11.7,0,0,0,49.49,15a11.55,11.55,0,0,0-4.9,22.09H44.46v6H33.59a5,5,0,0,0-5,3.93A4.83,4.83,0,0,0,33.35,52.71Zm11.2-27.11a4.83,4.83,0,1,1,5.68,5.69A4.84,4.84,0,0,1,44.55,25.61Z"/><path d="M17.9,62.6a1.54,1.54,0,0,1,1.45,0A40.56,40.56,0,0,0,49.46,76.09,39.8,39.8,0,0,0,80,61.88a1.09,1.09,0,0,1,1.45-.24L87,66a1.09,1.09,0,0,1,.24,1.45A49.86,49.86,0,0,1,49.7,85,49.13,49.13,0,0,1,12.85,68.38a1.1,1.1,0,0,1,0-1.45Z"/></svg>