<svg id="Layer_1" data-name="Layer 1" xmlns="http://www.w3.org/2000/svg" viewBox="0 0 100 100"><title>ico_vist.rio</title><path d="M5.5,48.16L28.33,25a2.85,2.85,0,0,1,4,0l3.3,3.25a2.85,2.85,0,0,1,0,4L18.11,50.1,36,67.68a2.85,2.85,0,0,1,0,4L32.75,75a2.85,2.85,0,0,1-4,0L5.53,52.22A2.89,2.89,0,0,1,5.5,48.16Z"/><path d="M94.5,48.16L71.67,25a2.85,2.85,0,0,0-4,0l-3.3,3.25a2.85,2.85,0,0,0,0,4L81.89,50.1,64,67.68a2.85,2.85,0,0,0,0,4L67.25,75a2.85,2.85,0,0,0,4,0L94.47,52.22A2.89,2.89,0,0,0,94.5,48.16Z"/></svg>